<?xml version="1.0" encoding="UTF-8"?>
<svg id="Calque_2" data-name="Calque 2" xmlns="http://www.w3.org/2000/svg" viewBox="0 0 260.37 98.02">
  <defs>
    <style>
      .cls-1 {
        fill: #3c6;
      }
    </style>
  </defs>
  <g id="Calque_1-2" data-name="Calque 1">
    <g>
      <path class="cls-1" d="M45.38,45.91h54.53v1.88c0,29.08-19.66,50.22-49.28,50.22C19.25,98.02,0,75.67,0,49.01S19.52,0,50.63,0c23.83,0,41.07,13.33,47.12,34.47h-22.62c-4.04-8.08-11.58-14.81-24.37-14.81-17.37,0-27.87,12.25-27.87,29.35,0,18.85,10.64,30.03,27.6,30.03,12.39,0,20.87-6.19,24.37-14.41h-29.49v-18.71Z"/>
      <path class="cls-1" d="M147.52,52.92v-7.63h16.37v51.24h-16.06v-7.63c-2.85,4.88-8.74,8.85-16.47,8.85-14.84,0-25.62-11.59-25.62-26.84s10.78-26.84,25.62-26.84c7.73,0,13.83,3.66,16.17,8.85ZM126.17,22.72c4.98,0,8.74,3.66,8.74,8.23s-3.76,8.24-8.74,8.24-8.74-3.66-8.74-8.24,3.76-8.23,8.74-8.23ZM147.21,70.91c0-7.52-5.19-13.01-12.51-13.01s-12.3,5.59-12.3,13.01,5.08,13.01,12.3,13.01,12.51-5.49,12.51-13.01ZM148.33,22.72c4.98,0,8.74,3.66,8.74,8.23s-3.76,8.24-8.74,8.24-8.74-3.66-8.74-8.24,3.76-8.23,8.74-8.23Z"/>
      <path class="cls-1" d="M176.08,96.53V22.31h16.67v74.22h-16.67Z"/>
      <path class="cls-1" d="M243.69,52.92v-30.6h16.67v74.22h-16.06v-7.63c-2.85,4.88-8.74,8.85-16.47,8.85-14.84,0-25.62-11.59-25.62-26.84s10.78-26.84,25.62-26.84c7.73,0,13.52,3.66,15.86,8.85ZM243.69,70.91c0-7.52-5.19-13.01-12.51-13.01s-12.3,5.59-12.3,13.01,5.08,13.01,12.3,13.01,12.51-5.49,12.51-13.01Z"/>
    </g>
  </g>
</svg>