<?xml version="1.0" encoding="UTF-8" standalone="no"?>
<!DOCTYPE svg PUBLIC "-//W3C//DTD SVG 1.1//EN" "http://www.w3.org/Graphics/SVG/1.1/DTD/svg11.dtd">
<svg width="100%" height="100%" viewBox="0 0 884 884" version="1.1" xmlns="http://www.w3.org/2000/svg" xmlns:xlink="http://www.w3.org/1999/xlink" xml:space="preserve" xmlns:serif="http://www.serif.com/" style="fill-rule:evenodd;clip-rule:evenodd;stroke-linejoin:round;stroke-miterlimit:2;">
    <g transform="matrix(1,0,0,1,-8247.678125,-1146.315833)">
        <g transform="matrix(4.166667,0,0,4.166667,7942.921875,0)">
            <g transform="matrix(1,0,0,1,260.2115,275.1158)">
                <path d="M0,212.086L-162.054,212.086C-175.87,212.086 -187.07,200.886 -187.07,187.07L-187.07,0L0,0C13.816,0 25.016,11.2 25.016,25.016L25.016,187.07C25.016,200.886 13.816,212.086 0,212.086" style="fill:rgb(51,204,102);fill-rule:nonzero;"/>
            </g>
        </g>
        <g transform="matrix(4.166667,0,0,4.166667,7942.921875,0)">
            <g transform="matrix(1,0,0,1,140.6514,414.6812)">
                <path d="M0,-6.192L54.53,-6.192L54.53,-4.307C54.53,24.776 34.873,45.914 5.251,45.914C-26.121,45.914 -45.375,23.564 -45.375,-3.095C-45.375,-30.294 -25.852,-52.106 5.251,-52.106C29.083,-52.106 46.317,-38.776 52.376,-17.637L29.756,-17.637C25.717,-25.715 18.177,-32.448 5.386,-32.448C-11.983,-32.448 -22.485,-20.195 -22.485,-3.095C-22.485,15.754 -11.849,26.93 5.116,26.93C17.503,26.93 25.986,20.737 29.487,12.523L0,12.523L0,-6.192Z" style="fill:white;fill-rule:nonzero;"/>
            </g>
        </g>
        <g transform="matrix(4.166667,0,0,4.166667,7942.921875,0)">
            <g transform="matrix(1,0,0,1,238.3608,460.3262)">
                <path d="M0,-73.485C4.879,-73.485 8.564,-69.901 8.564,-65.42C8.564,-60.939 4.879,-57.354 0,-57.354C-4.879,-57.354 -8.564,-60.939 -8.564,-65.42C-8.564,-69.901 -4.879,-73.485 0,-73.485M-1.095,-26.287C-1.095,-33.656 -6.174,-39.032 -13.343,-39.032C-20.413,-39.032 -25.391,-33.556 -25.391,-26.287C-25.391,-19.019 -20.413,-13.541 -13.343,-13.541C-6.174,-13.541 -1.095,-18.919 -1.095,-26.287M-21.707,-73.485C-16.828,-73.485 -13.144,-69.901 -13.144,-65.42C-13.144,-60.939 -16.828,-57.354 -21.707,-57.354C-26.586,-57.354 -30.27,-60.939 -30.27,-65.42C-30.27,-69.901 -26.586,-73.485 -21.707,-73.485M-0.797,-43.911L-0.797,-51.38L15.235,-51.38L15.235,-1.195L-0.498,-1.195L-0.498,-8.663C-3.286,-3.883 -9.061,0 -16.629,0C-31.167,0 -41.721,-11.351 -41.721,-26.287C-41.721,-41.223 -31.167,-52.575 -16.629,-52.575C-9.061,-52.575 -3.087,-48.99 -0.797,-43.911" style="fill:white;fill-rule:nonzero;"/>
            </g>
        </g>
    </g>
</svg>
